<svg width="1em" viewBox="0 0 210 27" fill="none" style='font-size: 200' xmlns="http://www.w3.org/2000/svg">
  <path d="M89.5586 24.6477V1.50549H100.092C102.703 1.50549 104.678 2.18867 106.017 3.55503C106.525 4.06762 106.925 4.68096 107.193 5.35727C107.46 6.03359 107.589 6.75857 107.571 7.48756V7.54973C107.571 9.82206 106.578 11.486 104.592 12.5414C105.996 13.0921 107.054 13.8079 107.767 14.6887C108.479 15.5695 108.835 16.7478 108.835 18.2237V18.2904C108.835 20.3628 108.079 21.9379 106.568 23.0156C105.056 24.0933 102.981 24.6373 100.342 24.6477H89.5586ZM102.614 8.42017V8.35578C102.614 6.76737 101.526 5.97391 99.3502 5.97539H94.4174V10.8605H99.0151C101.41 10.8605 102.608 10.0463 102.61 8.41795L102.614 8.42017ZM103.872 17.6708V17.6064C103.872 15.9322 102.639 15.095 100.173 15.095H94.4174V20.1778H100.342C102.697 20.1778 103.873 19.3399 103.872 17.6642" fill="#457DB7"/>
  <path d="M112.422 24.6477V6.92577H117.344V10.4941C118.464 7.79103 120.31 6.49129 122.882 6.59491V11.8509H122.623C120.938 11.8509 119.638 12.369 118.721 13.4052C117.804 14.4415 117.345 16.0054 117.344 18.0972V24.6477H112.422Z" fill="#457DB7"/>
  <path d="M133.989 25.0363C131.335 25.0363 129.111 24.1547 127.318 22.3917C126.448 21.5593 125.759 20.5495 125.296 19.4279C124.833 18.3063 124.606 17.0979 124.631 15.8811V15.8145C124.609 14.5915 124.839 13.3775 125.304 12.2505C125.77 11.1234 126.462 10.1084 127.335 9.27064C129.137 7.49422 131.377 6.60602 134.055 6.60602C136.709 6.60602 138.933 7.48756 140.726 9.25065C141.595 10.083 142.284 11.0924 142.747 12.2135C143.21 13.3347 143.437 14.5426 143.413 15.759V15.8256C143.435 17.0486 143.205 18.2626 142.739 19.3896C142.274 20.5166 141.582 21.5317 140.709 22.3694C138.907 24.1547 136.667 25.0474 133.989 25.0474V25.0363ZM134.055 20.7174C135.415 20.7174 136.503 20.2548 137.318 19.3296C138.145 18.3868 138.585 17.1564 138.548 15.8922V15.8256C138.574 14.5497 138.116 13.3129 137.271 12.3727C136.858 11.9032 136.35 11.5313 135.782 11.2831C135.214 11.035 134.6 10.9165 133.983 10.936C132.624 10.936 131.536 11.3979 130.719 12.3216C129.892 13.264 129.451 14.4945 129.487 15.759V15.8256C129.466 17.0989 129.927 18.3316 130.773 19.2674C131.185 19.7372 131.693 20.1094 132.261 20.3579C132.829 20.6065 133.443 20.7254 134.061 20.7063" fill="#457DB7"/>
  <path d="M146.975 24.6388V0.515137H151.897V13.3697L157.661 6.92576H163.555L156.949 13.8982L163.781 24.6388H158.08L153.646 17.3688L151.897 19.2518V24.6388H146.975Z" fill="#457DB7"/>
  <path d="M173.563 25.0341C170.927 25.0341 168.757 24.1807 167.052 22.4738C165.348 20.767 164.497 18.5694 164.5 15.8811V15.8145C164.5 13.2372 165.309 11.0559 166.928 9.27064C168.547 7.48535 170.598 6.59714 173.082 6.60602C175.823 6.60602 177.917 7.53124 179.364 9.38167C180.81 11.2321 181.535 13.5126 181.54 16.2231C181.54 16.4451 181.516 16.8892 181.474 17.5443H169.385C169.62 18.6679 170.105 19.5272 170.841 20.1223C171.576 20.7174 172.504 21.0135 173.626 21.0105C175.116 21.0105 176.519 20.4043 177.836 19.1919L180.665 21.7366C178.915 23.9394 176.552 25.0407 173.574 25.0407L173.563 25.0341ZM169.331 14.4H176.746C176.594 13.2542 176.2 12.3401 175.565 11.6577C175.246 11.3182 174.86 11.0514 174.433 10.875C174.006 10.6986 173.547 10.6164 173.086 10.634C172.625 10.6166 172.166 10.6966 171.737 10.8689C171.308 11.0413 170.918 11.3022 170.593 11.6355C169.946 12.3061 169.525 13.2254 169.331 14.3934" fill="#457DB7"/>
  <path d="M185.186 24.6477V6.92577H190.107V10.4941C191.23 7.79103 193.076 6.49129 195.645 6.59491V11.8509H195.397C193.713 11.8509 192.412 12.369 191.496 13.4052C190.579 14.4415 190.12 16.0054 190.118 18.0972V24.6477H185.186Z" fill="#457DB7"/>
  <path d="M86.1235 21.9297C86.1239 22.5079 85.9563 23.0732 85.6418 23.5541C85.3273 24.035 84.8801 24.4098 84.3568 24.6313C83.8335 24.8527 83.2576 24.9108 82.7019 24.7981C82.1462 24.6854 81.6358 24.4071 81.2352 23.9983C80.8346 23.5895 80.5618 23.0686 80.4514 22.5015C80.341 21.9345 80.3979 21.3467 80.6149 20.8127C80.8319 20.2786 81.1992 19.8222 81.6705 19.5013C82.1417 19.1804 82.6956 19.0093 83.2622 19.0098C83.6379 19.0098 84.01 19.0853 84.3572 19.232C84.7043 19.3788 85.0197 19.5939 85.2854 19.865C85.5511 20.1362 85.7619 20.458 85.9057 20.8123C86.0495 21.1666 86.1235 21.5463 86.1235 21.9297Z" fill="#457DB7"/>
  <path d="M5.66174 18.7767V15.8878H21.2304V10.11H5.66174V7.22111H22.647V1.44556H0V24.5544H22.647V18.7767H5.66174Z" fill="#457DB7"/>
  <path d="M70.7701 24.5544L59.4488 10.6274V24.5544H53.7871V1.44556H59.4488L70.7701 15.3704V1.44556H76.4319V24.5544H70.7701Z" fill="#457DB7"/>
  <path d="M202.97 1.4433H201.631H200.293H198.955V2.80891H200.293V5.54015H201.631V2.80891H202.97V1.4433Z" fill="#457DB7"/>
  <path d="M206.988 4.17453L205.315 1.4433H203.977V5.54015H205.315V3.49283L206.57 5.54015H207.406L208.659 3.49283V5.54015H210V1.4433H208.659L206.988 4.17453Z" fill="#457DB7"/>
  <path d="M44.7048 15.8877C44.0549 17.4086 42.9116 18.6546 41.4672 19.4163C40.0229 20.178 38.3655 20.4088 36.7739 20.0701C35.1824 19.7313 33.7537 18.8436 32.7281 17.5562C31.7025 16.2688 31.1426 14.6602 31.1426 13.0011C31.1426 11.3419 31.7025 9.73339 32.7281 8.44599C33.7537 7.15859 35.1824 6.27085 36.7739 5.93209C38.3655 5.59333 40.0229 5.8242 41.4672 6.58589C42.9116 7.34757 44.0549 8.5936 44.7048 10.1144H50.6386C49.9431 6.99758 48.1467 4.25148 45.5927 2.40071C43.0387 0.549941 39.9061 -0.275758 36.7933 0.0813538C33.6805 0.438466 30.8057 1.95335 28.7181 4.33662C26.6306 6.71989 25.4766 9.80446 25.4766 13.0011C25.4766 16.1977 26.6306 19.2823 28.7181 21.6655C30.8057 24.0488 33.6805 25.5637 36.7933 25.9208C39.9061 26.2779 43.0387 25.4522 45.5927 23.6014C48.1467 21.7507 49.9431 19.0046 50.6386 15.8877H44.7048Z" fill="#457DB7"/>
</svg>
