<svg width="66" height="19" viewBox="0 0 66 19" fill="none" xmlns="http://www.w3.org/2000/svg">
<path d="M4.29311 13.7227V11.6113H16.098V7.38936H4.29311V5.27728H17.1709V1.0553H0V17.9447H17.1709V13.7227H4.29311Z" fill="#457DB7"/>
<path d="M53.6598 17.9447L45.0736 7.76605V17.9447H40.7812V1.0553H45.0736L53.6598 11.2332V1.0553H57.9522V17.9447H53.6598Z" fill="#457DB7"/>
<path d="M62.2435 1.0553H61.5282H60.8129H60.0977V1.75884H60.8129V3.16592H61.5282V1.75884H62.2435V1.0553Z" fill="#457DB7"/>
<path d="M64.3899 2.46238L63.4958 1.0553H62.7812V3.16592H63.4958V2.11061L64.1663 3.16592H64.6134L65.2847 2.11061V3.16592H65.9992V1.0553H65.2847L64.3899 2.46238Z" fill="#457DB7"/>
<path d="M33.8955 11.6113C33.4024 12.7222 32.5355 13.6322 31.4405 14.1884C30.3455 14.7445 29.0892 14.9129 27.8828 14.6651C26.6764 14.4174 25.5936 13.7686 24.8163 12.828C24.039 11.8873 23.6147 10.7121 23.6147 9.49996C23.6147 8.28779 24.039 7.11259 24.8163 6.17193C25.5936 5.23128 26.6764 4.58254 27.8828 4.33479C29.0892 4.08704 30.3455 4.25539 31.4405 4.81154C32.5355 5.36768 33.4024 6.27771 33.8955 7.38861H38.3936C37.8658 5.11141 36.5037 3.10524 34.5674 1.75329C32.6311 0.401338 30.2563 -0.201634 27.8967 0.0595467C25.537 0.320727 23.3579 1.42775 21.7755 3.16917C20.1931 4.91059 19.3184 7.16435 19.3184 9.49996C19.3184 11.8356 20.1931 14.0893 21.7755 15.8307C23.3579 17.5722 25.537 18.6792 27.8967 18.9404C30.2563 19.2016 32.6311 18.5986 34.5674 17.2466C36.5037 15.8947 37.8658 13.8885 38.3936 11.6113H33.8955Z" fill="#457DB7"/>
</svg>
